<svg xmlns="http://www.w3.org/2000/svg" viewBox="0 0 640 300" width="640" height="300" role="img" aria-labelledby="t d"><title id="t">Portada de Cybersecurity Python Lab</title><desc id="d">Ciberseguridad · laboratorio · 4 de 14 herramientas disponibles</desc><defs><path id="b2f" d="M60 -110 410 830H540L190 -110Z"/><path id="b31" d="M84 0V110H274V619L83 477V609L251 730H399V110H552V0Z"/><path id="b34" d="M390 0V145H65V326L346 730H486L185 293V255H390V420H515V0Z"/><path id="b62" d="M347 -10Q279 -10 239 29Q208 58 201 105H199V0H77V730H202V576L198 445H201Q208 492 239 522Q279 560 347 560Q430 560 480 503.0Q530 446 530 349V200Q530 104 480 47.0Q430 -10 347 -10ZM303 98Q351 98 378 126.0Q405 154 405 206V344Q405 396 378 424.0Q351 452 303 452Q256 452 229 423.5Q202 395 202 344V206Q202 155 229 126.5Q256 98 303 98Z"/><path id="b64" d="M253 -10Q171 -10 120 47.0Q70 104 70 200V349Q70 446 120 503.0Q170 560 253 560Q321 560 361 522Q392 492 399 445H402L398 576V730H523V0H401V105H399Q392 58 361 29Q321 -10 253 -10ZM297 98Q345 98 372 126.5Q398 155 398 206V344Q398 395 372 423.5Q345 452 297 452.0Q249 452 222 424.0Q195 396 195 344V206Q195 154 222 126.0Q249 98 297 98Z"/><path id="b65" d="M301 -10Q231 -10 179 17.0Q127 44 98 92.5Q70 141 70 206V344Q70 409 98 457.5Q127 506 179 533.0Q231 560 301 560Q370 560 422 533.0Q473 506 502 457.5Q530 409 530 344V245H191V206Q191 148 219 118.5Q247 89 302 89Q344 89 370 103.5Q396 118 403 146H526Q512 75 450 32.5Q389 -10 301 -10ZM409 325V345Q409 402 382 432.5Q355 463 301 463.0Q247 463 219 432.0Q191 401 191 344V323Z"/><path id="b69" d="M76 0V114H268V437H101V550H388V114H558V0ZM318 642Q280 642 258 661.5Q236 681 236 714Q236 747 258 766.5Q280 786 318 786Q356 786 378 766.5Q400 747 400 714Q400 681 378 661.5Q356 642 318 642Z"/><path id="b6c" d="M384 0Q330 0 290 22.0Q249 44 226 84.5Q203 125 203 178V617H27V730H328V178Q328 148 346 130.5Q363 113 393 113H559V0Z"/><path id="b6e" d="M77 0V550H199V445H201Q208 493 239 522Q278 560 347 560Q428 560 476 506.0Q525 452 525 361V0H400V348Q400 398 374 425.0Q348 452 301 452Q255 452 228 424.0Q202 396 202 344V0Z"/><path id="b6f" d="M300 -9Q230 -9 178 17.5Q127 44 98 92.5Q70 141 70 207V343Q70 409 98 457.5Q127 506 178 532.5Q230 559 300 559Q371 559 422 532.5Q473 506 502 457.5Q530 409 530 344V207Q530 141 502 92.5Q473 44 422 17.5Q371 -9 300 -9ZM300 100Q350 100 378 127.5Q405 155 405 207V343Q405 396 378 423.0Q350 450 300 450Q251 450 223 423.0Q195 396 195 343V207Q195 155 223 127.5Q251 100 300 100Z"/><path id="b70" d="M77 -180V550H199V445H201Q208 492 239 522Q279 560 347 560Q430 560 480 503.0Q530 446 530 350V201Q530 137 508 89.5Q485 42 444 16.0Q403 -10 347 -10Q279 -10 239 29Q208 58 201 105H198L202 -26V-180ZM303 98Q351 98 378 126.0Q405 154 405 206V344Q405 396 378 424.0Q351 452 303 452Q256 452 229 423.5Q202 395 202 344V206Q202 155 229 126.5Q256 98 303 98Z"/><path id="b73" d="M279 -9Q216 -9 169 11.0Q122 31 96 66.5Q69 102 67 150H192Q194 124 218 108.0Q241 92 279 92H323Q369 92 392 110.0Q415 128 415 159Q415 188 394 204.5Q374 221 331 226L263 236Q169 249 125 286.0Q81 323 81 397Q81 474 133 516.5Q185 559 286 559H324Q416 559 471 518.0Q526 477 530 408H405Q402 430 380 444.0Q359 458 324 458H286Q243 458 224 442.5Q204 427 204 397Q204 369 221 355.5Q238 342 276 336L347 326Q445 312 492 273.5Q538 235 538 160Q538 80 484 35.5Q429 -9 323 -9Z"/><path id="m2f" d="M75 -110 430 830H525L170 -110Z"/><path id="m30" d="M300 -10Q233 -10 184 16.5Q134 43 107 91.5Q80 140 80 205V525Q80 591 107 639.0Q134 687 184 713.5Q233 740 300 740Q368 740 417 713.5Q466 687 493 639.0Q520 591 520 525V205Q520 140 493 91.5Q466 43 416 16.5Q367 -10 300 -10ZM300 67Q360 67 396 105.5Q433 144 433 205V525Q433 586 396 624.5Q360 663 300 663Q240 663 204 624.5Q167 586 167 525V205Q167 144 204 105.5Q240 67 300 67ZM300 306Q273 306 256 323.0Q240 340 240 368Q240 395 256 411.5Q273 428 300 428Q327 428 344 411.5Q360 395 360 368Q360 340 344 323.0Q327 306 300 306Z"/><path id="m32" d="M92 0V92L315 329Q372 390 398 437.5Q424 485 424 529Q424 590 390 625.0Q357 660 299 660Q235 660 198 624.0Q162 588 162 525H72Q74 591 102 639.5Q131 688 182 714.0Q232 740 299 740Q365 740 414 714.5Q462 689 488 642.0Q514 595 514 530Q514 468 481 407.0Q448 346 373 268L193 82H526V0Z"/><path id="m41" d="M50 0 240 730H361L550 0H459L411 194H190L142 0ZM208 270H392L336 495Q320 559 311 602.0Q302 645 300 658Q298 645 289 602.0Q280 559 264 496Z"/><path id="m42" d="M93 0V730H300Q400 730 456 680.0Q513 630 513 541Q513 491 492 454.0Q471 417 433 397Q419 390 404 386Q423 380 441 371Q483 348 506 305.0Q530 262 530 203Q530 141 504 95.0Q478 49 430 24.5Q382 0 315 0ZM181 81H305Q368 81 404 114.5Q441 148 441 206Q441 266 404 303.5Q368 341 305 341H181ZM181 419H299Q357 419 390 450.0Q424 481 424 534.0Q424 587 391 618.0Q358 649 300 649H181Z"/><path id="m43" d="M304 -10Q238 -10 190 15.0Q141 40 114 87.5Q88 135 88 200V530Q88 596 114 643.0Q141 690 190 715.0Q238 740 304 740Q370 740 418 714.5Q466 689 492 642.0Q518 595 518 530H428Q428 592 396 625.5Q363 659 304 659Q245 659 212 626.0Q178 593 178 531V200Q178 138 212 104.5Q245 71 304 71Q363 71 396 104.5Q428 138 428 200H518Q518 136 492 88.5Q466 41 418 15.5Q370 -10 304 -10Z"/><path id="m44" d="M92 0V730H281Q352 730 404 703.0Q455 676 484 627.0Q512 578 512 511V220Q512 153 484 103.5Q455 54 404 27.0Q352 0 281 0ZM182 80H281Q347 80 384 117.0Q422 154 422 220V511Q422 576 384 613.0Q347 650 281 650H182Z"/><path id="m45" d="M100 0V730H520V648H189V422H485V341H189V82H520V0Z"/><path id="m47" d="M304 -10Q238 -10 190 15.0Q141 40 114 87.5Q88 135 88 200V530Q88 596 114 643.0Q141 690 190 715.0Q238 740 304 740Q370 740 418 714.5Q466 689 492 642.0Q518 595 518 530H428Q428 592 396 625.5Q363 659 304 659Q245 659 212 626.0Q178 593 178 531V200Q178 138 212 104.0Q245 70 304 70Q363 70 396 104.0Q428 138 428 200V290H280V372H518V200Q518 136 492 88.5Q466 41 418 15.5Q370 -10 304 -10Z"/><path id="m49" d="M105 0V82H254V648H105V730H495V648H346V82H495V0Z"/><path id="m4c" d="M115 0V730H205V82H535V0Z"/><path id="m4f" d="M300 -10Q234 -10 186 15.0Q139 40 114 87.5Q88 135 88 200V530Q88 596 114 643.0Q139 690 186 715.0Q234 740 300 740Q366 740 414 715.0Q461 690 486 643.0Q512 596 512 531V200Q512 135 486 87.5Q461 40 414 15.0Q366 -10 300 -10ZM300 71Q359 71 390 104.5Q422 138 422 200V530Q422 592 390 625.5Q359 659 300 659Q242 659 210 625.5Q178 592 178 530V200Q178 138 210 104.5Q242 71 300 71Z"/><path id="m50" d="M92 0V730H327Q395 730 445 703.5Q495 677 522 629.0Q550 581 550 515Q550 450 522 401.5Q495 353 445 326.5Q395 300 327 300H182V0ZM182 381H327Q386 381 422 417.5Q457 454 457 515Q457 577 422 613.0Q386 649 327 649H182Z"/><path id="m52" d="M92 0V730H318Q383 730 432 703.5Q481 677 508 630.0Q535 583 535 520Q535 446 496 393.0Q458 340 392 320L545 0H439L299 310H182V0ZM182 391H318Q374 391 408 426.5Q442 462 442 520Q442 579 408 614.0Q374 649 318 649H182Z"/><path id="m53" d="M304 -10Q232 -10 180 14.0Q129 38 101 83.0Q73 128 72 190H162Q162 135 200 103.0Q237 71 304 71Q367 71 402 102.0Q438 133 438 188Q438 232 414 265.0Q391 298 347 311L248 342Q173 365 132 419.0Q92 473 92 546Q92 605 118 648.5Q145 692 193 716.5Q241 741 306 741Q402 741 460 687.5Q518 634 519 545H429Q429 599 396 629.5Q364 660 305 660Q247 660 214 632.0Q182 604 182 554Q182 509 206 476.0Q230 443 275 429L375 397Q448 374 488 319.0Q528 264 528 190Q528 130 500 85.0Q472 40 422 15.0Q371 -10 304 -10Z"/><path id="m54" d="M255 0V649H55V731H545V649H345V0Z"/><path id="m55" d="M300 -10Q198 -10 144 46.5Q90 103 90 200V730H180V200Q180 140 210 105.0Q239 70 300 70Q360 70 390 105.0Q420 140 420 200V730H510V200Q510 102 456 46.0Q403 -10 300 -10Z"/><path id="m63" d="M304 -10Q238 -10 188 15.0Q139 40 112 87.5Q85 135 85 200V350Q85 416 112 463.0Q139 510 188 535.0Q238 560 304 560Q399 560 457 509.0Q515 458 518 370H428Q425 423 392 451.5Q360 480 304 480Q245 480 210 446.5Q175 413 175 351V200Q175 138 210 104.0Q245 70 304 70Q360 70 392 99.0Q425 128 428 180H518Q515 92 457 41.0Q399 -10 304 -10Z"/><path id="m64" d="M268 -10Q186 -10 136 45.0Q85 100 85 194V355Q85 450 135 505.0Q185 560 268 560Q336 560 377 523Q411 492 417 445H420L418 570V730H508V0H418V105H417Q411 57 377 27Q336 -10 268 -10ZM298 68Q354 68 386 103.0Q418 138 418 200V350Q418 412 386 447.0Q354 482 298 482Q241 482 208 448.0Q175 414 175 350V200Q175 136 208 102.0Q241 68 298 68Z"/><path id="m65" d="M300 -10Q235 -10 186 16.0Q138 42 112 89.5Q85 137 85 200V350Q85 414 112 461.0Q138 508 186 534.0Q235 560 300 560.0Q365 560 414 534.0Q462 508 488 461.0Q515 414 515 350V253H173V200Q173 135 206 100.5Q239 66 300 66Q352 66 384 84.5Q416 103 423 140H513Q504 71 446 30.5Q387 -10 300 -10ZM427 321V350Q427 415 394 450.0Q362 485 300 485Q239 485 206 450.0Q173 415 173 350V321Z"/><path id="m67" d="M161 -180V-98H336Q378 -98 398 -79.0Q417 -60 417 -20V50L419 150H417Q413 101 378 70Q338 35 271 35Q186 35 137 90.5Q88 146 88 240V356Q88 450 137 505.0Q186 560 271 560Q338 560 378 525Q413 494 417 445H418V550H507V-20Q507 -94 462 -137.0Q416 -180 335 -180ZM298 113Q354 113 386 148.0Q418 183 418 245V350Q418 412 386 447.0Q354 482 298 482Q241 482 210 448.0Q178 414 178 350V245Q178 181 210 147.0Q241 113 298 113Z"/><path id="m68" d="M92 0V730H182V445H183Q189 495 221 525Q260 560 329 560Q412 560 461 509.0Q510 458 510 370V0H420V360Q420 419 388 451.5Q357 484 303 484Q247 484 214 449.0Q182 414 182 350V0Z"/><path id="m69" d="M85 0V82H280V468H110V550H370V82H555V0ZM315 649Q282 649 263 666.0Q244 683 244 712Q244 742 263 759.5Q282 777 315 777Q348 777 367 759.5Q386 742 386 712Q386 683 367 666.0Q348 649 315 649Z"/><path id="m6c" d="M375 0Q327 0 291 19.0Q255 38 235 73.0Q215 108 215 155V648H30V730H305V155Q305 121 324 101.5Q343 82 375 82H550V0Z"/><path id="m6e" d="M92 0V550H182V445H183Q189 495 221 525Q260 560 329 560Q412 560 461 509.0Q510 458 510 370V0H420V360Q420 419 388 450.5Q357 482 303 482Q247 482 214 448.0Q182 414 182 350V0Z"/><path id="m6f" d="M300 -8Q234 -8 186 17.0Q138 42 112 89.5Q85 137 85 202V348Q85 414 112 461.0Q138 508 186 533.0Q234 558 300 558Q366 558 414 533.0Q462 508 488 461.0Q515 414 515 349V202Q515 137 488 89.5Q462 42 414 17.0Q366 -8 300 -8ZM300 72Q359 72 392 105.0Q425 138 425 202V348Q425 412 392 445.0Q359 478 300 478Q242 478 208 445.0Q175 412 175 348V202Q175 138 208 105.0Q242 72 300 72Z"/><path id="m70" d="M92 -180V550H182V445H183Q189 493 224 524Q265 560 333 560Q416 560 466 505.5Q515 451 515 356V195Q515 132 492 86.0Q470 40 430 15.0Q389 -10 333 -10Q266 -10 224 27Q189 58 183 105H180L182 -20V-180ZM303 68Q360 68 392 102.0Q425 136 425 200V350Q425 414 392 448.0Q360 482 303 482Q248 482 215 447.0Q182 412 182 350V200Q182 138 215 103.0Q248 68 303 68Z"/><path id="m72" d="M111 0V550H199V452Q209 490 230 515Q268 560 344 560Q431 560 482 505.5Q534 451 534 358V325H444V350Q444 415 412 449.5Q381 484 323 484Q266 484 234 449.0Q201 414 201 350V0Z"/><path id="m73" d="M283 -8Q227 -8 186 9.5Q144 27 120 59.0Q95 91 90 135H180Q186 106 212 89.0Q239 72 283 72H325Q378 72 404 93.5Q430 115 430 151Q430 186 406 206.5Q383 227 337 234L263 246Q182 260 142 296.5Q103 333 103 403Q103 477 150 517.5Q197 558 291 558H329Q408 558 456 521.0Q504 484 514 421H424Q418 447 394 462.5Q370 478 329 478H291Q240 478 216 459.0Q193 440 193 402Q193 368 213 352.0Q233 336 276 329L350 317Q439 303 480 265.0Q520 227 520 155Q520 79 472 35.5Q423 -8 325 -8Z"/><path id="m74" d="M360 0Q289 0 250 38.0Q210 76 210 145V468H55V550H210V705H300V550H520V468H300V145Q300 82 360 82H510V0Z"/><path id="m78" d="M50 0 245 283 62 550H168L277 380Q284 369 291 356L301 335Q304 343 310 356.0Q317 369 324 380L434 550H539L356 282L550 0H444L326 180Q319 191 312 205.5Q306 220 301 229Q297 220 290 205.5Q282 191 274 180L155 0Z"/><path id="m79" d="M178 -180 259 34 55 550H155L283 210Q290 193 296 169.5Q302 146 306 130Q310 146 316 169.5Q322 193 328 210L448 550H545L274 -180Z"/><path id="mb7" d="M300 260Q262 260 240 282.0Q217 304 217 341Q217 380 240 403.0Q262 426 300 426Q338 426 360 403.0Q383 380 383 341Q383 304 360 282.0Q338 260 300 260Z"/><path id="me1" d="M252 -10Q165 -10 115 34.5Q65 79 65 155Q65 232 115 276.0Q165 320 250 320H420V375Q420 426 390 453.5Q359 481 303 481Q254 481 221 460.5Q188 440 183 405H93Q102 476 160 518.0Q218 560 305 560Q400 560 455 511.0Q510 462 510 378V0H422V105H421Q416 56 376 25Q329 -10 252 -10ZM274 61Q338 61 379 93.0Q420 125 420 175V253H252Q207 253 181 228.0Q155 203 155 160Q155 114 186 87.5Q218 61 274 61ZM247 645 353 785H450L339 645Z"/><path id="t30" d="M324 -14Q200 -14 125 54.5Q50 123 50 262V438Q50 573 125 643.5Q200 714 324 714Q449 714 524 643.5Q598 573 598 438V262Q598 123 524 54.5Q449 -14 324 -14ZM324 100Q399 100 434 141.0Q470 182 470 258V444Q470 521 430 560.5Q391 600 324 600Q255 600 216 559.0Q178 518 178 444V258Q178 179 214 139.5Q251 100 324 100Z"/><path id="t32" d="M42 0V84Q42 157 66 205.5Q90 254 136 285.5Q181 317 247 337L314 358Q351 370 376 387.5Q401 405 414 430.0Q428 455 428 487V491Q428 541 394 570.5Q360 600 301 600Q243 600 208 568.5Q172 537 172 478V460H44V476Q44 552 78 605.0Q112 658 170 686.0Q229 714 301 714Q373 714 431 686.5Q489 659 522 609.5Q556 560 556 493V483Q556 416 528 369.5Q501 323 454 293.5Q407 264 347 245L283 225Q240 212 216 196.5Q192 181 182 162.5Q173 144 173 118V114H550V0Z"/><path id="t43" d="M332 -14Q202 -14 126 58.5Q50 131 50 266V434Q50 569 126 641.5Q202 714 332 714Q461 714 532 643.5Q602 573 602 450V444H472V454Q472 516 438 556.0Q403 596 332 596Q262 596 222 553.0Q182 510 182 436V264Q182 191 222 147.5Q262 104 332 104Q403 104 438 144.5Q472 185 472 246V264H602V250Q602 127 532 56.5Q461 -14 332 -14Z"/><path id="t4c" d="M66 0V700H198V120H518V0Z"/><path id="t50" d="M66 0V700H354Q420 700 470 673.5Q521 647 550 599.0Q578 551 578 485V471Q578 406 548 357.5Q519 309 468 282.5Q418 256 354 256H198V0ZM198 376H341Q388 376 417 402.0Q446 428 446 473V483Q446 528 417 554.0Q388 580 341 580H198Z"/><path id="t61" d="M224 -14Q171 -14 129 4.5Q87 23 62 58.5Q38 94 38 145Q38 196 62 230.5Q87 265 130 282.5Q174 300 230 300H366V328Q366 363 344 385.5Q322 408 274 408Q227 408 204 386.5Q181 365 174 331L58 370Q70 408 96 439.5Q123 471 168 490.5Q212 510 276 510Q374 510 431 461.0Q488 412 488 319V134Q488 104 516 104H556V0H472Q435 0 411 18.0Q387 36 387 66V67H368Q364 55 350 35.5Q336 16 306 1.0Q276 -14 224 -14ZM246 88Q299 88 332 117.5Q366 147 366 196V206H239Q204 206 184 191.0Q164 176 164 149Q164 122 185 105.0Q206 88 246 88Z"/><path id="t62" d="M368 -14Q301 -14 265 9.0Q229 32 212 60H194V0H70V700H196V439H214Q225 457 244 473.0Q262 489 292 499.5Q323 510 368 510Q428 510 479 480.5Q530 451 561 394.0Q592 337 592 256V240Q592 159 561 102.0Q530 45 479 15.5Q428 -14 368 -14ZM330 96Q388 96 427 133.5Q466 171 466 243V253Q466 325 428 362.5Q389 400 330 400Q272 400 233 362.5Q194 325 194 253V243Q194 171 233 133.5Q272 96 330 96Z"/><path id="t63" d="M303 -14Q231 -14 172 16.0Q114 46 80 103.0Q46 160 46 241V255Q46 336 80 393.0Q114 450 172 480.0Q231 510 303 510Q374 510 425 485.0Q476 460 508 416.5Q539 373 549 318L427 292Q423 322 409 346.0Q395 370 370 384.0Q344 398 306 398Q268 398 238 381.5Q207 365 190 332.5Q172 300 172 253V243Q172 196 190 163.5Q207 131 238 114.5Q268 98 306 98Q363 98 392 127.5Q422 157 430 205L552 176Q539 123 508 79.5Q476 36 425 11.0Q374 -14 303 -14Z"/><path id="t65" d="M296 -14Q222 -14 166 17.5Q109 49 78 106.5Q46 164 46 242V254Q46 332 77 389.5Q108 447 164 478.5Q220 510 294 510Q367 510 421 477.5Q475 445 505 387.5Q535 330 535 254V211H174Q176 160 212 128.0Q248 96 300 96Q353 96 378 119.0Q403 142 416 170L519 116Q505 90 478 59.5Q452 29 408 7.5Q364 -14 296 -14ZM175 305H407Q403 348 372 374.0Q342 400 293 400Q242 400 212 374.0Q182 348 175 305Z"/><path id="t68" d="M70 0V700H196V435H214Q222 451 239 467.0Q256 483 284 493.5Q313 504 357 504Q415 504 458 477.5Q502 451 526 404.5Q550 358 550 296V0H424V286Q424 342 396 370.0Q369 398 318 398Q260 398 228 359.5Q196 321 196 252V0Z"/><path id="t69" d="M70 0V496H196V0ZM133 554Q99 554 76 576.0Q52 598 52 634Q52 670 76 692.0Q99 714 133 714Q168 714 191 692.0Q214 670 214 634Q214 598 191 576.0Q168 554 133 554Z"/><path id="t6e" d="M70 0V496H194V431H212Q224 457 257 480.5Q290 504 357 504Q415 504 458 477.5Q502 451 526 404.5Q550 358 550 296V0H424V286Q424 342 396 370.0Q369 398 318 398Q260 398 228 359.5Q196 321 196 252V0Z"/><path id="t6f" d="M306 -14Q232 -14 173 16.0Q114 46 80 103.0Q46 160 46 240V256Q46 336 80 393.0Q114 450 173 480.0Q232 510 306 510Q380 510 439 480.0Q498 450 532 393.0Q566 336 566 256V240Q566 160 532 103.0Q498 46 439 16.0Q380 -14 306 -14ZM306 98Q364 98 402 135.5Q440 173 440 243V253Q440 323 402 360.5Q365 398 306 398Q248 398 210 360.5Q172 323 172 253V243Q172 173 210 135.5Q248 98 306 98Z"/><path id="t72" d="M70 0V496H194V440H212Q223 470 248 484.0Q274 498 308 498H368V386H306Q258 386 227 360.5Q196 335 196 282V0Z"/><path id="t73" d="M276 -14Q179 -14 117 28.0Q55 70 42 148L158 178Q165 143 182 123.0Q198 103 222 94.5Q247 86 276 86Q320 86 341 101.5Q362 117 362 140Q362 163 342 175.5Q322 188 278 196L250 201Q198 211 155 228.5Q112 246 86 277.0Q60 308 60 357Q60 431 114 470.5Q168 510 256 510Q339 510 394 473.0Q449 436 466 376L349 340Q341 378 316 394.0Q292 410 256 410Q220 410 201 397.5Q182 385 182 363Q182 339 202 327.5Q222 316 256 310L284 305Q340 295 386 278.5Q431 262 458 231.5Q484 201 484 149Q484 71 428 28.5Q371 -14 276 -14Z"/><path id="t74" d="M260 0Q211 0 180 30.5Q150 61 150 112V392H26V496H150V650H276V496H412V392H276V134Q276 104 304 104H400V0Z"/><path id="t75" d="M259 -8Q201 -8 158 18.5Q114 45 90 92.0Q66 139 66 200V496H192V210Q192 154 220 126.0Q247 98 298 98Q356 98 388 136.5Q420 175 420 244V496H546V0H422V65H404Q392 40 359 16.0Q326 -8 259 -8Z"/><path id="t79" d="M124 -200V-90H394Q422 -90 422 -60V65H404Q396 48 379 31.0Q362 14 333 3.0Q304 -8 259 -8Q201 -8 158 18.5Q114 45 90 92.0Q66 139 66 200V496H192V210Q192 154 220 126.0Q247 98 298 98Q356 98 388 136.5Q420 175 420 244V496H546V-88Q546 -139 516 -169.5Q486 -200 436 -200Z"/><clipPath id="pc"><rect width="640" height="300" rx="16"/></clipPath><pattern id="pr" width="24" height="24" patternUnits="userSpaceOnUse"><path d="M24 0H0V24" fill="none" stroke="#101B30"/></pattern><radialGradient id="pg"><stop offset="0" stop-color="#34D399" stop-opacity=".22"/><stop offset="1" stop-color="#34D399" stop-opacity="0"/></radialGradient></defs><g clip-path="url(#pc)"><rect width="640" height="300" fill="#0B1220"/><rect width="640" height="300" fill="url(#pr)" opacity=".7"/><circle cx="490" cy="160" r="230" fill="url(#pg)"/></g><rect x=".5" y=".5" width="639" height="299" rx="16" fill="none" stroke="#1B2943"/><path d="M20 .5H120" stroke="#34D399" stroke-width="3"/><g transform="translate(28 40) scale(0.0125 -0.0125)" fill="#5E6F8C"><use href="#m70"/><use href="#m72" x="600"/><use href="#m6f" x="1200"/><use href="#m79" x="1800"/><use href="#m65" x="2400"/><use href="#m63" x="3000"/><use href="#m74" x="3600"/><use href="#m6f" x="4200"/><use href="#m2f" x="4800"/><use href="#m30" x="5400"/><use href="#m32" x="6000"/></g><g transform="translate(24 150) scale(0.096 -0.096)" fill="#2A3B5F"><use href="#t30"/><use href="#t32" x="648"/></g><rect x="465.3" y="22" width="146.7" height="26" rx="13" fill="#34D399" fill-opacity=".12" stroke="#34D399" stroke-opacity=".7"/><g transform="translate(477.3 39.5) scale(0.012 -0.012)" fill="#34D399"><use href="#b34"/><use href="#b2f" x="641.7"/><use href="#b31" x="1283.3"/><use href="#b34" x="1925"/><use href="#b64" x="3208.3"/><use href="#b69" x="3850"/><use href="#b73" x="4491.7"/><use href="#b70" x="5133.3"/><use href="#b6f" x="5775"/><use href="#b6e" x="6416.7"/><use href="#b69" x="7058.3"/><use href="#b62" x="7700"/><use href="#b6c" x="8341.7"/><use href="#b65" x="8983.3"/><use href="#b73" x="9625"/></g><rect x="352" y="60" width="264" height="200" rx="10" fill="#070B14" stroke="#2A3B5F"/><circle cx="368" cy="76" r="3.5" fill="#F87171"/><circle cx="380" cy="76" r="3.5" fill="#F5B544"/><circle cx="392" cy="76" r="3.5" fill="#34D399"/><rect x="366" y="98" width="50" height="7" rx="3" fill="#2A3B5F"/><rect x="422" y="98" width="116" height="7" rx="3" fill="#2A3B5F" fill-opacity="0.55"/><rect x="366" y="116" width="32" height="7" rx="3" fill="#2A3B5F"/><rect x="404" y="116" width="51" height="7" rx="3" fill="#2A3B5F" fill-opacity="0.55"/><rect x="366" y="134" width="41" height="7" rx="3" fill="#2A3B5F"/><rect x="413" y="134" width="61" height="7" rx="3" fill="#2A3B5F" fill-opacity="0.55"/><rect x="366" y="152" width="47" height="7" rx="3" fill="#2A3B5F"/><rect x="419" y="152" width="64" height="7" rx="3" fill="#F87171" fill-opacity="0.9"/><rect x="366" y="170" width="30" height="7" rx="3" fill="#2A3B5F"/><rect x="402" y="170" width="51" height="7" rx="3" fill="#F87171" fill-opacity="0.9"/><rect x="366" y="188" width="31" height="7" rx="3" fill="#2A3B5F"/><rect x="403" y="188" width="108" height="7" rx="3" fill="#F87171" fill-opacity="0.9"/><rect x="366" y="206" width="31" height="7" rx="3" fill="#2A3B5F"/><rect x="403" y="206" width="77" height="7" rx="3" fill="#2A3B5F" fill-opacity="0.55"/><rect x="366" y="224" width="37" height="7" rx="3" fill="#2A3B5F"/><rect x="409" y="224" width="65" height="7" rx="3" fill="#2A3B5F" fill-opacity="0.55"/><path d="M360 148h-4v52h4M604 148h4v52h-4" fill="none" stroke="#34D399" stroke-width="2.5" stroke-linecap="round" stroke-linejoin="round"/><rect x="530" y="238" width="6" height="10" fill="#34D399" fill-opacity=".85"/><rect x="539" y="234" width="6" height="14" fill="#34D399" fill-opacity=".85"/><rect x="548" y="239" width="6" height="9" fill="#34D399" fill-opacity=".85"/><rect x="557" y="232" width="6" height="16" fill="#34D399" fill-opacity=".85"/><rect x="566" y="214" width="6" height="34" fill="#F87171" fill-opacity=".85"/><rect x="575" y="208" width="6" height="40" fill="#F87171" fill-opacity=".85"/><rect x="584" y="236" width="6" height="12" fill="#34D399" fill-opacity=".85"/><rect x="593" y="240" width="6" height="8" fill="#34D399" fill-opacity=".85"/><g transform="translate(28 186) scale(0.0125 -0.0125)" fill="#34D399"><use href="#m43"/><use href="#m49" x="680"/><use href="#m42" x="1360"/><use href="#m45" x="2040"/><use href="#m52" x="2720"/><use href="#m53" x="3400"/><use href="#m45" x="4080"/><use href="#m47" x="4760"/><use href="#m55" x="5440"/><use href="#m52" x="6120"/><use href="#m49" x="6800"/><use href="#m44" x="7480"/><use href="#m41" x="8160"/><use href="#m44" x="8840"/><use href="#mb7" x="10200"/><use href="#m4c" x="11560"/><use href="#m41" x="12240"/><use href="#m42" x="12920"/><use href="#m4f" x="13600"/><use href="#m52" x="14280"/><use href="#m41" x="14960"/><use href="#m54" x="15640"/><use href="#m4f" x="16320"/><use href="#m52" x="17000"/><use href="#m49" x="17680"/><use href="#m4f" x="18360"/></g><g transform="translate(26 232) scale(0.025 -0.025)" fill="#E6EDF7"><use href="#t43"/><use href="#t79" x="644"/><use href="#t62" x="1260"/><use href="#t65" x="1898"/><use href="#t72" x="2475"/><use href="#t73" x="2871"/><use href="#t65" x="3395"/><use href="#t63" x="3972"/><use href="#t75" x="4558"/><use href="#t72" x="5174"/><use href="#t69" x="5570"/><use href="#t74" x="5836"/><use href="#t79" x="6292"/><use href="#t50" x="7162"/><use href="#t79" x="7766"/><use href="#t74" x="8382"/><use href="#t68" x="8838"/><use href="#t6f" x="9454"/><use href="#t6e" x="10066"/><use href="#t4c" x="10936"/><use href="#t61" x="11478"/><use href="#t62" x="12056"/></g><g transform="translate(28 278) scale(0.011 -0.011)" fill="#9AA9C2"><use href="#m50"/><use href="#m79" x="600"/><use href="#m74" x="1200"/><use href="#m68" x="1800"/><use href="#m6f" x="2400"/><use href="#m6e" x="3000"/><use href="#mb7" x="4800"/><use href="#m70" x="6600"/><use href="#m79" x="7200"/><use href="#m74" x="7800"/><use href="#m65" x="8400"/><use href="#m73" x="9000"/><use href="#m74" x="9600"/><use href="#mb7" x="11400"/><use href="#m41" x="13200"/><use href="#m6e" x="13800"/><use href="#me1" x="14400"/><use href="#m6c" x="15000"/><use href="#m69" x="15600"/><use href="#m73" x="16200"/><use href="#m69" x="16800"/><use href="#m73" x="17400"/><use href="#m64" x="18600"/><use href="#m65" x="19200"/><use href="#m6c" x="20400"/><use href="#m6f" x="21000"/><use href="#m67" x="21600"/><use href="#m73" x="22200"/><use href="#mb7" x="24000"/><use href="#m52" x="25800"/><use href="#m65" x="26400"/><use href="#m67" x="27000"/><use href="#m65" x="27600"/><use href="#m78" x="28200"/></g></svg>
