<svg xmlns="http://www.w3.org/2000/svg" viewBox="0 0 640 300" width="640" height="300" role="img" aria-labelledby="t d"><title id="t">Portada de SOPHYA — Asistente de IA</title><desc id="d">IA aplicada · Beta gratuita · requiere cuenta</desc><style>.psw{animation:psw 8s cubic-bezier(.5,0,.3,1) infinite}@keyframes psw{0%{transform:translateX(0)}60%,100%{transform:translateX(920px)}}.mscan{animation:mscan 4s ease-in-out infinite alternate}@keyframes mscan{to{transform:translateY(144px)}}.mbar{transform-box:fill-box;transform-origin:center bottom;animation:mbar 1.6s ease-in-out infinite alternate}@keyframes mbar{from{transform:scaleY(.45)}to{transform:scaleY(1)}}.mcur{animation:mcur 1.1s steps(2,start) infinite}@keyframes mcur{to{opacity:0}}.mgir{transform-box:fill-box;transform-origin:center;animation:mgir 12s linear infinite}@keyframes mgir{to{transform:rotate(360deg)}}.mpul{transform-box:fill-box;transform-origin:center;animation:mpul 2.6s ease-in-out infinite}@keyframes mpul{0%,100%{transform:scale(.85)}50%{transform:scale(1.08)}}.msel{animation:msel 5s ease-out infinite both}@keyframes msel{0%{opacity:.15}12%,85%{opacity:1}100%{opacity:.15}}@media (prefers-reduced-motion:reduce){*{animation:none!important}}</style><defs><path id="b41" d="M35 0 219 730H380L565 0H437L397 177H203L163 0ZM226 279H374L330 475Q319 524 311 563.5Q303 603 300 621Q297 603 290 563.5Q282 524 270 476Z"/><path id="b43" d="M304 -10Q234 -10 182 16.5Q129 43 100 91.5Q72 140 72 206V524Q72 591 100 639.0Q129 687 182 713.5Q234 740 304 740Q375 740 426 713.5Q478 687 507 639.0Q536 591 536 524H410Q410 576 382 603.0Q355 630 304 630Q253 630 225 603.0Q197 576 197 525V206Q197 155 225 127.5Q253 100 304 100Q355 100 382 127.5Q410 155 410 206H536Q536 141 507 92.0Q478 43 426 16.5Q375 -10 304 -10Z"/><path id="b44" d="M75 0V730H292Q366 730 420 702.0Q475 674 505 623.0Q535 572 535 502V229Q535 160 505 108.5Q475 57 420 28.5Q366 0 292 0ZM200 115H292Q346 115 378 145.5Q410 176 410 229V502Q410 554 378 584.5Q346 615 292 615H200Z"/><path id="b49" d="M90 0V110H237V620H90V730H510V620H363V110H510V0Z"/><path id="b4c" d="M103 0V730H228V116H538V0Z"/><path id="b50" d="M77 0V730H320Q393 730 448 702.0Q502 674 532 623.5Q562 573 562 505Q562 438 532 387.0Q501 336 447 308.0Q393 280 320 280H202V0ZM202 393H320Q372 393 404 423.5Q435 454 435 505Q435 557 404 587.0Q372 617 320 617H202Z"/><path id="b61" d="M239 -10Q154 -10 105 35.0Q56 80 56 156Q56 237 110 281.0Q164 325 263 325H400V372Q400 412 374 434.5Q348 457 303 457Q262 457 235 439.0Q208 421 203 390H81Q90 468 151 514.0Q212 560 307 560Q408 560 466 509.5Q525 459 525 373V0H404V96H402Q394 54 359 26Q314 -10 239 -10ZM280 84Q333 84 366 111.0Q400 138 400 181V248H265Q227 248 204 226.0Q181 204 181 168Q181 129 208 106.5Q234 84 280 84Z"/><path id="b62" d="M347 -10Q279 -10 239 29Q208 58 201 105H199V0H77V730H202V576L198 445H201Q208 492 239 522Q279 560 347 560Q430 560 480 503.0Q530 446 530 349V200Q530 104 480 47.0Q430 -10 347 -10ZM303 98Q351 98 378 126.0Q405 154 405 206V344Q405 396 378 424.0Q351 452 303 452Q256 452 229 423.5Q202 395 202 344V206Q202 155 229 126.5Q256 98 303 98Z"/><path id="b65" d="M301 -10Q231 -10 179 17.0Q127 44 98 92.5Q70 141 70 206V344Q70 409 98 457.5Q127 506 179 533.0Q231 560 301 560Q370 560 422 533.0Q473 506 502 457.5Q530 409 530 344V245H191V206Q191 148 219 118.5Q247 89 302 89Q344 89 370 103.5Q396 118 403 146H526Q512 75 450 32.5Q389 -10 301 -10ZM409 325V345Q409 402 382 432.5Q355 463 301 463.0Q247 463 219 432.0Q191 401 191 344V323Z"/><path id="b74" d="M360 0Q281 0 236 44.0Q192 88 192 165V437H43V550H192V705H318V550H529V437H318V165Q318 113 369 113H519V0Z"/><path id="m2f" d="M75 -110 430 830H525L170 -110Z"/><path id="m30" d="M300 -10Q233 -10 184 16.5Q134 43 107 91.5Q80 140 80 205V525Q80 591 107 639.0Q134 687 184 713.5Q233 740 300 740Q368 740 417 713.5Q466 687 493 639.0Q520 591 520 525V205Q520 140 493 91.5Q466 43 416 16.5Q367 -10 300 -10ZM300 67Q360 67 396 105.5Q433 144 433 205V525Q433 586 396 624.5Q360 663 300 663Q240 663 204 624.5Q167 586 167 525V205Q167 144 204 105.5Q240 67 300 67ZM300 306Q273 306 256 323.0Q240 340 240 368Q240 395 256 411.5Q273 428 300 428Q327 428 344 411.5Q360 395 360 368Q360 340 344 323.0Q327 306 300 306Z"/><path id="m33" d="M289 -10Q223 -10 174 16.5Q124 43 97 90.0Q70 137 70 200H160Q160 139 194 104.5Q229 70 290 70Q352 70 386 106.0Q420 142 420 200V252Q420 314 386 348.0Q352 382 290 382H215V472L396 648H100V730H487V640L303 462Q395 459 451 405Q510 348 510 252V200Q510 137 482 90.0Q455 43 405 16.5Q355 -10 289 -10Z"/><path id="m41" d="M50 0 240 730H361L550 0H459L411 194H190L142 0ZM208 270H392L336 495Q320 559 311 602.0Q302 645 300 658Q298 645 289 602.0Q280 559 264 496Z"/><path id="m46" d="M95 0V731H525V649H183V406H499V324H185V0Z"/><path id="m49" d="M105 0V82H254V648H105V730H495V648H346V82H495V0Z"/><path id="m4a" d="M270 -10Q165 -10 105 49.0Q45 108 45 210H135Q135 143 170 106.5Q206 70 270 70Q334 70 370 106.5Q405 143 405 210V648H230V730H495V210Q495 108 434 49.0Q374 -10 270 -10Z"/><path id="m50" d="M92 0V730H327Q395 730 445 703.5Q495 677 522 629.0Q550 581 550 515Q550 450 522 401.5Q495 353 445 326.5Q395 300 327 300H182V0ZM182 381H327Q386 381 422 417.5Q457 454 457 515Q457 577 422 613.0Q386 649 327 649H182Z"/><path id="m53" d="M304 -10Q232 -10 180 14.0Q129 38 101 83.0Q73 128 72 190H162Q162 135 200 103.0Q237 71 304 71Q367 71 402 102.0Q438 133 438 188Q438 232 414 265.0Q391 298 347 311L248 342Q173 365 132 419.0Q92 473 92 546Q92 605 118 648.5Q145 692 193 716.5Q241 741 306 741Q402 741 460 687.5Q518 634 519 545H429Q429 599 396 629.5Q364 660 305 660Q247 660 214 632.0Q182 604 182 554Q182 509 206 476.0Q230 443 275 429L375 397Q448 374 488 319.0Q528 264 528 190Q528 130 500 85.0Q472 40 422 15.0Q371 -10 304 -10Z"/><path id="m61" d="M252 -10Q165 -10 115 34.5Q65 79 65 155Q65 232 115 276.0Q165 320 250 320H420V375Q420 426 390 453.5Q359 481 303 481Q254 481 221 460.5Q188 440 183 405H93Q102 476 160 518.0Q218 560 305 560Q400 560 455 511.0Q510 462 510 378V0H422V105H421Q416 56 376 25Q329 -10 252 -10ZM274 61Q338 61 379 93.0Q420 125 420 175V253H252Q207 253 181 228.0Q155 203 155 160Q155 114 186 87.5Q218 61 274 61Z"/><path id="m63" d="M304 -10Q238 -10 188 15.0Q139 40 112 87.5Q85 135 85 200V350Q85 416 112 463.0Q139 510 188 535.0Q238 560 304 560Q399 560 457 509.0Q515 458 518 370H428Q425 423 392 451.5Q360 480 304 480Q245 480 210 446.5Q175 413 175 351V200Q175 138 210 104.0Q245 70 304 70Q360 70 392 99.0Q425 128 428 180H518Q515 92 457 41.0Q399 -10 304 -10Z"/><path id="m65" d="M300 -10Q235 -10 186 16.0Q138 42 112 89.5Q85 137 85 200V350Q85 414 112 461.0Q138 508 186 534.0Q235 560 300 560.0Q365 560 414 534.0Q462 508 488 461.0Q515 414 515 350V253H173V200Q173 135 206 100.5Q239 66 300 66Q352 66 384 84.5Q416 103 423 140H513Q504 71 446 30.5Q387 -10 300 -10ZM427 321V350Q427 415 394 450.0Q362 485 300 485Q239 485 206 450.0Q173 415 173 350V321Z"/><path id="m68" d="M92 0V730H182V445H183Q189 495 221 525Q260 560 329 560Q412 560 461 509.0Q510 458 510 370V0H420V360Q420 419 388 451.5Q357 484 303 484Q247 484 214 449.0Q182 414 182 350V0Z"/><path id="m69" d="M85 0V82H280V468H110V550H370V82H555V0ZM315 649Q282 649 263 666.0Q244 683 244 712Q244 742 263 759.5Q282 777 315 777Q348 777 367 759.5Q386 742 386 712Q386 683 367 666.0Q348 649 315 649Z"/><path id="m6e" d="M92 0V550H182V445H183Q189 495 221 525Q260 560 329 560Q412 560 461 509.0Q510 458 510 370V0H420V360Q420 419 388 450.5Q357 482 303 482Q247 482 214 448.0Q182 414 182 350V0Z"/><path id="m6f" d="M300 -8Q234 -8 186 17.0Q138 42 112 89.5Q85 137 85 202V348Q85 414 112 461.0Q138 508 186 533.0Q234 558 300 558Q366 558 414 533.0Q462 508 488 461.0Q515 414 515 349V202Q515 137 488 89.5Q462 42 414 17.0Q366 -8 300 -8ZM300 72Q359 72 392 105.0Q425 138 425 202V348Q425 412 392 445.0Q359 478 300 478Q242 478 208 445.0Q175 412 175 348V202Q175 138 208 105.0Q242 72 300 72Z"/><path id="m70" d="M92 -180V550H182V445H183Q189 493 224 524Q265 560 333 560Q416 560 466 505.5Q515 451 515 356V195Q515 132 492 86.0Q470 40 430 15.0Q389 -10 333 -10Q266 -10 224 27Q189 58 183 105H180L182 -20V-180ZM303 68Q360 68 392 102.0Q425 136 425 200V350Q425 414 392 448.0Q360 482 303 482Q248 482 215 447.0Q182 412 182 350V200Q182 138 215 103.0Q248 68 303 68Z"/><path id="m72" d="M111 0V550H199V452Q209 490 230 515Q268 560 344 560Q431 560 482 505.5Q534 451 534 358V325H444V350Q444 415 412 449.5Q381 484 323 484Q266 484 234 449.0Q201 414 201 350V0Z"/><path id="m73" d="M283 -8Q227 -8 186 9.5Q144 27 120 59.0Q95 91 90 135H180Q186 106 212 89.0Q239 72 283 72H325Q378 72 404 93.5Q430 115 430 151Q430 186 406 206.5Q383 227 337 234L263 246Q182 260 142 296.5Q103 333 103 403Q103 477 150 517.5Q197 558 291 558H329Q408 558 456 521.0Q504 484 514 421H424Q418 447 394 462.5Q370 478 329 478H291Q240 478 216 459.0Q193 440 193 402Q193 368 213 352.0Q233 336 276 329L350 317Q439 303 480 265.0Q520 227 520 155Q520 79 472 35.5Q423 -8 325 -8Z"/><path id="m74" d="M360 0Q289 0 250 38.0Q210 76 210 145V468H55V550H210V705H300V550H520V468H300V145Q300 82 360 82H510V0Z"/><path id="m76" d="M239 0 55 550H147L269 180Q280 147 289 116.5Q298 86 302 69Q307 86 316 116.5Q325 147 335 180L454 550H545L361 0Z"/><path id="m79" d="M178 -180 259 34 55 550H155L283 210Q290 193 296 169.5Q302 146 306 130Q310 146 316 169.5Q322 193 328 210L448 550H545L274 -180Z"/><path id="mb7" d="M300 260Q262 260 240 282.0Q217 304 217 341Q217 380 240 403.0Q262 426 300 426Q338 426 360 403.0Q383 380 383 341Q383 304 360 282.0Q338 260 300 260Z"/><path id="t30" d="M324 -14Q200 -14 125 54.5Q50 123 50 262V438Q50 573 125 643.5Q200 714 324 714Q449 714 524 643.5Q598 573 598 438V262Q598 123 524 54.5Q449 -14 324 -14ZM324 100Q399 100 434 141.0Q470 182 470 258V444Q470 521 430 560.5Q391 600 324 600Q255 600 216 559.0Q178 518 178 444V258Q178 179 214 139.5Q251 100 324 100Z"/><path id="t33" d="M304 -14Q225 -14 164 14.0Q103 42 68 94.5Q34 147 34 219V237H162V223Q162 167 201 133.5Q240 100 304 100Q369 100 404 131.0Q440 162 440 209V219Q440 251 424 271.0Q408 291 381 300.5Q354 310 320 310H180V450L406 570V586H52V700H548V530L337 418V402H374Q421 402 466 383.0Q510 364 539 324.5Q568 285 568 222V210Q568 142 535 91.5Q502 41 442 13.5Q383 -14 304 -14Z"/><path id="t41" d="M18 0 202 700H432L616 0H480L442 154H192L154 0ZM223 276H411L326 617H308Z"/><path id="t48" d="M66 0V700H198V411H458V700H590V0H458V291H198V0Z"/><path id="t49" d="M66 0V700H198V0Z"/><path id="t4f" d="M338 -14Q206 -14 128 58.5Q50 131 50 266V434Q50 569 128 641.5Q206 714 338 714Q470 714 548 641.5Q626 569 626 434V266Q626 131 548 58.5Q470 -14 338 -14ZM338 104Q412 104 453 147.0Q494 190 494 262V438Q494 510 453 553.0Q412 596 338 596Q265 596 224 553.0Q182 510 182 438V262Q182 190 224 147.0Q265 104 338 104Z"/><path id="t50" d="M66 0V700H354Q420 700 470 673.5Q521 647 550 599.0Q578 551 578 485V471Q578 406 548 357.5Q519 309 468 282.5Q418 256 354 256H198V0ZM198 376H341Q388 376 417 402.0Q446 428 446 473V483Q446 528 417 554.0Q388 580 341 580H198Z"/><path id="t53" d="M309 -14Q228 -14 166 15.0Q104 44 69 98.0Q34 152 34 228V256H164V228Q164 165 203 133.5Q242 102 309 102Q377 102 410 129.0Q444 156 444 198Q444 227 428 245.0Q411 263 380 274.5Q348 286 303 296L280 301Q208 317 156 341.5Q105 366 78 406.0Q50 446 50 510Q50 574 80 619.5Q111 665 166 689.5Q222 714 297 714Q372 714 430 688.5Q489 663 522 612.5Q556 562 556 486V456H426V486Q426 526 410 550.5Q395 575 366 586.5Q337 598 297 598Q237 598 208 575.5Q180 553 180 514Q180 488 194 470.0Q207 452 234 440.0Q261 428 303 419L326 414Q401 398 456 373.0Q512 348 543 307.0Q574 266 574 202Q574 138 542 89.5Q509 41 450 13.5Q390 -14 309 -14Z"/><path id="t59" d="M246 0V241L8 700H155L303 400H321L469 700H616L378 241V0Z"/><path id="t64" d="M270 -14Q211 -14 160 15.5Q108 45 77 102.0Q46 159 46 240V256Q46 337 77 394.0Q108 451 159 480.5Q210 510 270 510Q315 510 346 499.5Q376 489 395 473.0Q414 457 424 439H442V700H568V0H444V60H426Q409 32 374 9.0Q338 -14 270 -14ZM308 96Q366 96 405 133.5Q444 171 444 243V253Q444 325 406 362.5Q367 400 308 400Q250 400 211 362.5Q172 325 172 253V243Q172 171 211 133.5Q250 96 308 96Z"/><path id="t65" d="M296 -14Q222 -14 166 17.5Q109 49 78 106.5Q46 164 46 242V254Q46 332 77 389.5Q108 447 164 478.5Q220 510 294 510Q367 510 421 477.5Q475 445 505 387.5Q535 330 535 254V211H174Q176 160 212 128.0Q248 96 300 96Q353 96 378 119.0Q403 142 416 170L519 116Q505 90 478 59.5Q452 29 408 7.5Q364 -14 296 -14ZM175 305H407Q403 348 372 374.0Q342 400 293 400Q242 400 212 374.0Q182 348 175 305Z"/><path id="t69" d="M70 0V496H196V0ZM133 554Q99 554 76 576.0Q52 598 52 634Q52 670 76 692.0Q99 714 133 714Q168 714 191 692.0Q214 670 214 634Q214 598 191 576.0Q168 554 133 554Z"/><path id="t6e" d="M70 0V496H194V431H212Q224 457 257 480.5Q290 504 357 504Q415 504 458 477.5Q502 451 526 404.5Q550 358 550 296V0H424V286Q424 342 396 370.0Q369 398 318 398Q260 398 228 359.5Q196 321 196 252V0Z"/><path id="t73" d="M276 -14Q179 -14 117 28.0Q55 70 42 148L158 178Q165 143 182 123.0Q198 103 222 94.5Q247 86 276 86Q320 86 341 101.5Q362 117 362 140Q362 163 342 175.5Q322 188 278 196L250 201Q198 211 155 228.5Q112 246 86 277.0Q60 308 60 357Q60 431 114 470.5Q168 510 256 510Q339 510 394 473.0Q449 436 466 376L349 340Q341 378 316 394.0Q292 410 256 410Q220 410 201 397.5Q182 385 182 363Q182 339 202 327.5Q222 316 256 310L284 305Q340 295 386 278.5Q431 262 458 231.5Q484 201 484 149Q484 71 428 28.5Q371 -14 276 -14Z"/><path id="t74" d="M260 0Q211 0 180 30.5Q150 61 150 112V392H26V496H150V650H276V496H412V392H276V134Q276 104 304 104H400V0Z"/><clipPath id="pc"><rect width="640" height="300" rx="18"/></clipPath><linearGradient id="pf" x1="0" y1="0" x2="1" y2="1"><stop offset="0" stop-color="#050816"/><stop offset="0.5" stop-color="#2D1537"/><stop offset="1" stop-color="#2B2055"/></linearGradient><radialGradient id="pg1"><stop offset="0" stop-color="#8B5CF6" stop-opacity="0.55"/><stop offset=".5" stop-color="#8B5CF6" stop-opacity="0.15"/><stop offset="1" stop-color="#8B5CF6" stop-opacity="0"/></radialGradient><radialGradient id="pg2"><stop offset="0" stop-color="#E14FD0" stop-opacity="0.4"/><stop offset="1" stop-color="#E14FD0" stop-opacity="0"/></radialGradient><linearGradient id="pb" x1="0" y1="0" x2="1" y2="1"><stop offset="0" stop-color="#8B5CF6"/><stop offset="1" stop-color="#E14FD0"/></linearGradient><linearGradient id="pn" x1="0" y1="0" x2="1" y2="0"><stop offset="0" stop-color="#8B5CF6"/><stop offset="1" stop-color="#E14FD0"/></linearGradient><pattern id="pr" width="24" height="24" patternUnits="userSpaceOnUse"><path d="M24 0H0V24" fill="none" stroke="#ffffff" stroke-opacity=".035"/></pattern><linearGradient id="psw" x1="0" y1="0" x2="1" y2="0"><stop offset="0" stop-color="#fff" stop-opacity="0"/><stop offset=".5" stop-color="#fff" stop-opacity=".1"/><stop offset="1" stop-color="#fff" stop-opacity="0"/></linearGradient><mask id="pm" maskUnits="userSpaceOnUse" x="0" y="0" width="640" height="300"><g transform="translate(24 150) scale(0.096 -0.096)" fill="#fff"><use href="#t30"/><use href="#t33" x="648"/></g></mask></defs><g clip-path="url(#pc)"><rect width="640" height="300" fill="url(#pf)"/><rect width="640" height="300" fill="url(#pr)"/><circle cx="500" cy="150" r="230" fill="url(#pg1)"/><circle cx="60" cy="300" r="220" fill="url(#pg2)"/><path d="M456 236L128 300M459 236L172 300M462 236L216 300M465 236L260 300M468 236L304 300M471 236L348 300M474 236L392 300M477 236L436 300M480 236L480 300M483 236L524 300M486 236L568 300M489 236L612 300M492 236L656 300M495 236L700 300M498 236L744 300M501 236L788 300M504 236L832 300M300 241H640M300 249H640M300 261H640M300 278H640M300 300H640" stroke="#8B5CF6" stroke-opacity=".22" fill="none"/><circle cx="500" cy="160" r="98" fill="none" stroke="#E14FD0" stroke-opacity=".5" stroke-width="2" stroke-dasharray="3 7"/><circle class="mgir" cx="500" cy="160" r="70" fill="none" stroke="#8B5CF6" stroke-opacity=".8" stroke-width="2.4" stroke-dasharray="40 14"/><circle cx="500" cy="160" r="42" fill="#8B5CF6" fill-opacity=".14" stroke="#8B5CF6" stroke-width="2.4"/><circle class="mpul" cx="500" cy="160" r="22" fill="#8B5CF6"/><rect x="587.09" y="188.52" width="10" height="10" rx="2" fill="#E14FD0"/><rect x="441.38" y="200" width="10" height="10" rx="2" fill="#22D3EE"/><rect x="461.48" y="62.91" width="10" height="10" rx="2" fill="#8B5CF6"/><rect x="548.62" y="110" width="10" height="10" rx="2" fill="#E14FD0"/><rect x="512.02" y="251.51" width="10" height="10" rx="2" fill="#22D3EE"/><rect class="mbar" x="562" y="155.0" width="4" height="10" rx="2" fill="#22D3EE" style="animation-delay:-0.0s"/><rect class="mbar" x="569" y="149.0" width="4" height="22" rx="2" fill="#22D3EE" style="animation-delay:-0.2s"/><rect class="mbar" x="576" y="142.0" width="4" height="36" rx="2" fill="#22D3EE" style="animation-delay:-0.4s"/><rect class="mbar" x="583" y="151.0" width="4" height="18" rx="2" fill="#22D3EE" style="animation-delay:-0.6000000000000001s"/><rect class="mbar" x="590" y="138.0" width="4" height="44" rx="2" fill="#22D3EE" style="animation-delay:-0.8s"/><rect class="mbar" x="597" y="147.0" width="4" height="26" rx="2" fill="#22D3EE" style="animation-delay:-1.0s"/><rect class="mbar" x="604" y="153.0" width="4" height="14" rx="2" fill="#22D3EE" style="animation-delay:-1.2000000000000002s"/><rect class="mbar" x="611" y="145.0" width="4" height="30" rx="2" fill="#22D3EE" style="animation-delay:-1.4000000000000001s"/><rect class="mbar" x="618" y="154.0" width="4" height="12" rx="2" fill="#22D3EE" style="animation-delay:-1.6s"/><rect class="psw" x="-260" y="0" width="260" height="300" fill="url(#psw)"/></g><rect x="1" y="1" width="638" height="298" rx="17" fill="none" stroke="url(#pb)" stroke-width="2"/><g transform="translate(28 42) scale(0.0125 -0.0125)" fill="#AE8DF9"><use href="#m70"/><use href="#m72" x="600"/><use href="#m6f" x="1200"/><use href="#m79" x="1800"/><use href="#m65" x="2400"/><use href="#m63" x="3000"/><use href="#m74" x="3600"/><use href="#m6f" x="4200"/><use href="#m2f" x="4800"/><use href="#m30" x="5400"/><use href="#m33" x="6000"/></g><rect x="20" y="70" width="150" height="90" fill="url(#pn)" fill-opacity=".55" mask="url(#pm)"/><rect x="555.7" y="22" width="56.3" height="28" rx="14" fill="#8B5CF6" fill-opacity=".18" stroke="#8B5CF6"/><g transform="translate(568.7 40.5) scale(0.012 -0.012)" fill="#B495F9"><use href="#b62"/><use href="#b65" x="641.7"/><use href="#b74" x="1283.3"/><use href="#b61" x="1925"/></g><g transform="translate(28 190) scale(0.0125 -0.0125)" fill="#A27DF8"><use href="#b49"/><use href="#b41" x="696"/><use href="#b41" x="2088"/><use href="#b50" x="2784"/><use href="#b4c" x="3480"/><use href="#b49" x="4176"/><use href="#b43" x="4872"/><use href="#b41" x="5568"/><use href="#b44" x="6264"/><use href="#b41" x="6960"/></g><g transform="translate(26 222) scale(0.029 -0.029)" fill="#FFFFFF"><use href="#t53"/><use href="#t4f" x="606"/><use href="#t50" x="1282"/><use href="#t48" x="1886"/><use href="#t59" x="2542"/><use href="#t41" x="3166"/></g><g transform="translate(26 253.32) scale(0.029 -0.029)" fill="#BFA5FA"><use href="#t41"/><use href="#t73" x="634"/><use href="#t69" x="1158"/><use href="#t73" x="1424"/><use href="#t74" x="1948"/><use href="#t65" x="2404"/><use href="#t6e" x="2981"/><use href="#t74" x="3597"/><use href="#t65" x="4053"/><use href="#t64" x="4884"/><use href="#t65" x="5522"/><use href="#t49" x="6353"/><use href="#t41" x="6617"/></g><g transform="translate(28 280) scale(0.0125 -0.0125)" fill="#B9C5E6"><use href="#m50"/><use href="#m79" x="600"/><use href="#m74" x="1200"/><use href="#m68" x="1800"/><use href="#m6f" x="2400"/><use href="#m6e" x="3000"/><use href="#mb7" x="4800"/><use href="#m46" x="6600"/><use href="#m61" x="7200"/><use href="#m73" x="7800"/><use href="#m74" x="8400"/><use href="#m41" x="9000"/><use href="#m50" x="9600"/><use href="#m49" x="10200"/><use href="#mb7" x="12000"/><use href="#m4a" x="13800"/><use href="#m61" x="14400"/><use href="#m76" x="15000"/><use href="#m61" x="15600"/><use href="#m53" x="16200"/><use href="#m63" x="16800"/><use href="#m72" x="17400"/><use href="#m69" x="18000"/><use href="#m70" x="18600"/><use href="#m74" x="19200"/></g></svg>
