<svg xmlns="http://www.w3.org/2000/svg" viewBox="0 0 364 52" width="364" height="52" role="img" aria-labelledby="t d"><title id="t">Lo que sé</title><desc id="d">Tecnologías por experiencia, proyectos, herramientas y aprendizaje</desc><style>.mv{animation:mv 5s cubic-bezier(.5,0,.3,1) infinite}@keyframes mv{0%{transform:translateX(0)}60%,100%{transform:translateX(200px)}}@media (prefers-reduced-motion:reduce){*{animation:none!important}}</style><defs><path id="t45" d="M66 0V700H516V580H198V413H488V293H198V120H522V0Z"/><path id="t4c" d="M66 0V700H198V120H518V0Z"/><path id="t4f" d="M338 -14Q206 -14 128 58.5Q50 131 50 266V434Q50 569 128 641.5Q206 714 338 714Q470 714 548 641.5Q626 569 626 434V266Q626 131 548 58.5Q470 -14 338 -14ZM338 104Q412 104 453 147.0Q494 190 494 262V438Q494 510 453 553.0Q412 596 338 596Q265 596 224 553.0Q182 510 182 438V262Q182 190 224 147.0Q265 104 338 104Z"/><path id="t51" d="M384 -180Q335 -180 304 -149.5Q274 -119 274 -68V-9Q186 5 128 59Q50 131 50 266V434Q50 569 128 641.5Q206 714 338 714.0Q470 714 548 641.5Q626 569 626 434V266Q626 131 548 59Q490 5 402 -9V-48Q402 -78 430 -78H489V-180ZM338 104Q412 104 453 147.0Q494 190 494 262V438Q494 510 453 553.0Q412 596 338 596Q265 596 224 553.0Q182 510 182 438V262Q182 190 224 147.0Q265 104 338 104Z"/><path id="t53" d="M309 -14Q228 -14 166 15.0Q104 44 69 98.0Q34 152 34 228V256H164V228Q164 165 203 133.5Q242 102 309 102Q377 102 410 129.0Q444 156 444 198Q444 227 428 245.0Q411 263 380 274.5Q348 286 303 296L280 301Q208 317 156 341.5Q105 366 78 406.0Q50 446 50 510Q50 574 80 619.5Q111 665 166 689.5Q222 714 297 714Q372 714 430 688.5Q489 663 522 612.5Q556 562 556 486V456H426V486Q426 526 410 550.5Q395 575 366 586.5Q337 598 297 598Q237 598 208 575.5Q180 553 180 514Q180 488 194 470.0Q207 452 234 440.0Q261 428 303 419L326 414Q401 398 456 373.0Q512 348 543 307.0Q574 266 574 202Q574 138 542 89.5Q509 41 450 13.5Q390 -14 309 -14Z"/><path id="t55" d="M336 -14Q250 -14 188 17.5Q127 49 94 107.5Q62 166 62 246V700H194V242Q194 178 230 141.0Q267 104 336 104Q405 104 442 141.0Q478 178 478 242V700H610V246Q610 166 578 107.5Q545 49 484 17.5Q422 -14 336 -14Z"/><path id="tc9" d="M66 0V700H516V580H198V413H488V293H198V120H522V0ZM218 758 288 888H434L330 758Z"/><linearGradient id="eb" x1="0" y1="0" x2="1" y2="1"><stop offset="0" stop-color="#3B82F6"/><stop offset="1" stop-color="#8B5CF6"/></linearGradient><linearGradient id="el" x1="0" y1="0" x2="1" y2="0"><stop offset="0" stop-color="#3B82F6"/><stop offset="1" stop-color="#8B5CF6"/></linearGradient><clipPath id="ec"><rect x="200.54" y="20" width="150" height="10"/></clipPath></defs><rect x="2" y="6" width="40" height="40" rx="11" fill="url(#eb)"/><rect x="2" y="6" width="40" height="40" rx="11" fill="none" stroke="#fff" stroke-opacity=".35"/><g transform="translate(10 14) scale(1)" fill="none" stroke="#fff" stroke-width="2.1" stroke-linecap="round" stroke-linejoin="round"><rect x="6" y="6" width="12" height="12" rx="2"/><rect x="9.5" y="9.5" width="5" height="5" rx=".8"/><path d="M9 2v4M12 2v4M15 2v4M9 18v4M12 18v4M15 18v4M2 9h4M2 12h4M2 15h4M18 9h4M18 12h4M18 15h4"/></g><g transform="translate(58 34) scale(0.022 -0.022)" fill="#0B1220"><use href="#t4c"/><use href="#t4f" x="651.1"/><use href="#t51" x="1799.3"/><use href="#t55" x="2584.4"/><use href="#t45" x="3365.5"/><use href="#t53" x="4391.6"/><use href="#tc9" x="5106.7"/></g><rect x="200.54" y="24" width="150" height="3" rx="1.5" fill="url(#el)" fill-opacity=".45"/><g clip-path="url(#ec)"><rect class="mv" x="150.54" y="24" width="50" height="3" fill="#fff" fill-opacity=".9"/></g><rect x="354.54" y="21.5" width="8" height="8" rx="2" fill="#8B5CF6"/></svg>
