<svg xmlns="http://www.w3.org/2000/svg" viewBox="0 0 168 172" width="168" height="172" role="img" aria-labelledby="t d"><title id="t">Blue team</title><desc id="d">eventos de seguridad</desc><style>.ng{animation:ng 3.8s ease-in-out infinite}@keyframes ng{0%,100%{opacity:.6}50%{opacity:1}}.zr{animation:zr 9s linear infinite}@keyframes zr{to{stroke-dashoffset:-1000}}.zf{animation-name:zf;animation-iteration-count:infinite;animation-timing-function:ease-in-out;animation-direction:alternate}@keyframes zf{from{transform:translateY(0)}to{transform:translateY(-4px)}}@media (prefers-reduced-motion:reduce){*{animation:none!important}}</style><defs><path id="m61" d="M252 -10Q165 -10 115 34.5Q65 79 65 155Q65 232 115 276.0Q165 320 250 320H420V375Q420 426 390 453.5Q359 481 303 481Q254 481 221 460.5Q188 440 183 405H93Q102 476 160 518.0Q218 560 305 560Q400 560 455 511.0Q510 462 510 378V0H422V105H421Q416 56 376 25Q329 -10 252 -10ZM274 61Q338 61 379 93.0Q420 125 420 175V253H252Q207 253 181 228.0Q155 203 155 160Q155 114 186 87.5Q218 61 274 61Z"/><path id="m64" d="M268 -10Q186 -10 136 45.0Q85 100 85 194V355Q85 450 135 505.0Q185 560 268 560Q336 560 377 523Q411 492 417 445H420L418 570V730H508V0H418V105H417Q411 57 377 27Q336 -10 268 -10ZM298 68Q354 68 386 103.0Q418 138 418 200V350Q418 412 386 447.0Q354 482 298 482Q241 482 208 448.0Q175 414 175 350V200Q175 136 208 102.0Q241 68 298 68Z"/><path id="m65" d="M300 -10Q235 -10 186 16.0Q138 42 112 89.5Q85 137 85 200V350Q85 414 112 461.0Q138 508 186 534.0Q235 560 300 560.0Q365 560 414 534.0Q462 508 488 461.0Q515 414 515 350V253H173V200Q173 135 206 100.5Q239 66 300 66Q352 66 384 84.5Q416 103 423 140H513Q504 71 446 30.5Q387 -10 300 -10ZM427 321V350Q427 415 394 450.0Q362 485 300 485Q239 485 206 450.0Q173 415 173 350V321Z"/><path id="m67" d="M161 -180V-98H336Q378 -98 398 -79.0Q417 -60 417 -20V50L419 150H417Q413 101 378 70Q338 35 271 35Q186 35 137 90.5Q88 146 88 240V356Q88 450 137 505.0Q186 560 271 560Q338 560 378 525Q413 494 417 445H418V550H507V-20Q507 -94 462 -137.0Q416 -180 335 -180ZM298 113Q354 113 386 148.0Q418 183 418 245V350Q418 412 386 447.0Q354 482 298 482Q241 482 210 448.0Q178 414 178 350V245Q178 181 210 147.0Q241 113 298 113Z"/><path id="m69" d="M85 0V82H280V468H110V550H370V82H555V0ZM315 649Q282 649 263 666.0Q244 683 244 712Q244 742 263 759.5Q282 777 315 777Q348 777 367 759.5Q386 742 386 712Q386 683 367 666.0Q348 649 315 649Z"/><path id="m6e" d="M92 0V550H182V445H183Q189 495 221 525Q260 560 329 560Q412 560 461 509.0Q510 458 510 370V0H420V360Q420 419 388 450.5Q357 482 303 482Q247 482 214 448.0Q182 414 182 350V0Z"/><path id="m6f" d="M300 -8Q234 -8 186 17.0Q138 42 112 89.5Q85 137 85 202V348Q85 414 112 461.0Q138 508 186 533.0Q234 558 300 558Q366 558 414 533.0Q462 508 488 461.0Q515 414 515 349V202Q515 137 488 89.5Q462 42 414 17.0Q366 -8 300 -8ZM300 72Q359 72 392 105.0Q425 138 425 202V348Q425 412 392 445.0Q359 478 300 478Q242 478 208 445.0Q175 412 175 348V202Q175 138 208 105.0Q242 72 300 72Z"/><path id="m72" d="M111 0V550H199V452Q209 490 230 515Q268 560 344 560Q431 560 482 505.5Q534 451 534 358V325H444V350Q444 415 412 449.5Q381 484 323 484Q266 484 234 449.0Q201 414 201 350V0Z"/><path id="m73" d="M283 -8Q227 -8 186 9.5Q144 27 120 59.0Q95 91 90 135H180Q186 106 212 89.0Q239 72 283 72H325Q378 72 404 93.5Q430 115 430 151Q430 186 406 206.5Q383 227 337 234L263 246Q182 260 142 296.5Q103 333 103 403Q103 477 150 517.5Q197 558 291 558H329Q408 558 456 521.0Q504 484 514 421H424Q418 447 394 462.5Q370 478 329 478H291Q240 478 216 459.0Q193 440 193 402Q193 368 213 352.0Q233 336 276 329L350 317Q439 303 480 265.0Q520 227 520 155Q520 79 472 35.5Q423 -8 325 -8Z"/><path id="m74" d="M360 0Q289 0 250 38.0Q210 76 210 145V468H55V550H210V705H300V550H520V468H300V145Q300 82 360 82H510V0Z"/><path id="m75" d="M299 -10Q204 -10 147 46.5Q90 103 90 200V550H180V200Q180 138 212 103.5Q244 69 299 69Q355 69 388 103.5Q420 138 420 200V550H510V200Q510 103 452 46.5Q394 -10 299 -10Z"/><path id="m76" d="M239 0 55 550H147L269 180Q280 147 289 116.5Q298 86 302 69Q307 86 316 116.5Q325 147 335 180L454 550H545L361 0Z"/><path id="t42" d="M46 0V116H138V584H46V700H406Q470 700 518 678.5Q565 657 592 617.5Q618 578 618 523V513Q618 465 600 434.5Q582 404 558 387.5Q533 371 511 364V346Q533 340 559 323.5Q585 307 604 276.0Q622 245 622 195V185Q622 127 595 85.5Q568 44 520 22.0Q473 0 410 0ZM270 120H394Q437 120 464 141.0Q490 162 490 201V211Q490 250 464 271.0Q438 292 394 292H270ZM270 412H392Q433 412 460 433.0Q486 454 486 491V501Q486 539 460 559.5Q434 580 392 580H270Z"/><path id="t61" d="M224 -14Q171 -14 129 4.5Q87 23 62 58.5Q38 94 38 145Q38 196 62 230.5Q87 265 130 282.5Q174 300 230 300H366V328Q366 363 344 385.5Q322 408 274 408Q227 408 204 386.5Q181 365 174 331L58 370Q70 408 96 439.5Q123 471 168 490.5Q212 510 276 510Q374 510 431 461.0Q488 412 488 319V134Q488 104 516 104H556V0H472Q435 0 411 18.0Q387 36 387 66V67H368Q364 55 350 35.5Q336 16 306 1.0Q276 -14 224 -14ZM246 88Q299 88 332 117.5Q366 147 366 196V206H239Q204 206 184 191.0Q164 176 164 149Q164 122 185 105.0Q206 88 246 88Z"/><path id="t65" d="M296 -14Q222 -14 166 17.5Q109 49 78 106.5Q46 164 46 242V254Q46 332 77 389.5Q108 447 164 478.5Q220 510 294 510Q367 510 421 477.5Q475 445 505 387.5Q535 330 535 254V211H174Q176 160 212 128.0Q248 96 300 96Q353 96 378 119.0Q403 142 416 170L519 116Q505 90 478 59.5Q452 29 408 7.5Q364 -14 296 -14ZM175 305H407Q403 348 372 374.0Q342 400 293 400Q242 400 212 374.0Q182 348 175 305Z"/><path id="t6c" d="M70 0V700H196V0Z"/><path id="t6d" d="M70 0V496H194V442H212Q225 467 255 485.5Q285 504 334 504Q387 504 419 483.5Q451 463 468 430H486Q503 462 534 483.0Q565 504 622 504Q668 504 706 484.5Q743 465 766 425.5Q788 386 788 326V0H662V317Q662 358 641 378.5Q620 399 582 399Q539 399 516 371.5Q492 344 492 293V0H366V317Q366 358 345 378.5Q324 399 286 399Q243 399 220 371.5Q196 344 196 293V0Z"/><path id="t74" d="M260 0Q211 0 180 30.5Q150 61 150 112V392H26V496H150V650H276V496H412V392H276V134Q276 104 304 104H400V0Z"/><path id="t75" d="M259 -8Q201 -8 158 18.5Q114 45 90 92.0Q66 139 66 200V496H192V210Q192 154 220 126.0Q247 98 298 98Q356 98 388 136.5Q420 175 420 244V496H546V0H422V65H404Q392 40 359 16.0Q326 -8 259 -8Z"/><clipPath id="zc"><rect width="168" height="172" rx="18"/></clipPath><radialGradient id="zg"><stop offset="0" stop-color="#2EE6A0" stop-opacity="0.45"/><stop offset="1" stop-color="#2EE6A0" stop-opacity="0"/></radialGradient><linearGradient id="zf" x1="0" y1="0" x2="0" y2="1"><stop offset="0" stop-color="#0D2E33"/><stop offset="1" stop-color="#070B1E"/></linearGradient><filter id="nb" x="-8%" y="-80%" width="116%" height="260%" color-interpolation-filters="sRGB"><feGaussianBlur in="SourceGraphic" stdDeviation="1.6" result="a"/><feGaussianBlur in="SourceGraphic" stdDeviation="5" result="b"/><feMerge><feMergeNode in="b"/><feMergeNode in="b"/><feMergeNode in="a"/></feMerge></filter></defs><g clip-path="url(#zc)"><rect width="168" height="172" fill="url(#zf)"/><circle cx="84.0" cy="56" r="74" fill="url(#zg)"/></g><rect x="1.5" y="1.5" width="165" height="169" rx="16.5" fill="none" stroke="#2EE6A0" stroke-opacity=".7" stroke-width="1.6" stroke-dasharray="7 5"/><rect class="zr" x="1.5" y="1.5" width="165" height="169" rx="16.5" fill="none" stroke="#6DEEBC" stroke-width="2.4" stroke-linecap="round" pathLength="1000" stroke-dasharray="90 910" style="animation-delay:-8.62s"/><g class="zf" style="animation-duration:4.05s;animation-delay:-1.33s"><g transform="translate(49 20)"><rect width="70" height="70" rx="16.41" fill="#242938"/><g transform="translate(15.86 15.86) scale(1.5951)" fill="none" stroke="#4DEAAE" stroke-width="1.25" stroke-linecap="round" stroke-linejoin="round"><path d="M12 2.5 20 5.5V11c0 5-3.4 8.8-8 10.5C7.4 19.8 4 16 4 11V5.5Z"/><rect x="9" y="11" width="6" height="5" rx="1"/><path d="M10 11V9.5a2 2 0 0 1 4 0V11"/></g></g></g><g filter="url(#nb)" class="ng" style="animation-delay:-0.66s"><g transform="translate(45.26 118) scale(0.016 -0.016)" fill="#2EE6A0"><use href="#t42"/><use href="#t6c" x="664"/><use href="#t75" x="930"/><use href="#t65" x="1546"/><use href="#t74" x="2377"/><use href="#t65" x="2833"/><use href="#t61" x="3410"/><use href="#t6d" x="3988"/></g></g><g transform="translate(45.26 118) scale(0.016 -0.016)" fill="#A1F4D4"><use href="#t42"/><use href="#t6c" x="664"/><use href="#t75" x="930"/><use href="#t65" x="1546"/><use href="#t74" x="2377"/><use href="#t65" x="2833"/><use href="#t61" x="3410"/><use href="#t6d" x="3988"/></g><g transform="translate(18 156) scale(0.011 -0.011)" fill="#8CF1CB"><use href="#m65"/><use href="#m76" x="600"/><use href="#m65" x="1200"/><use href="#m6e" x="1800"/><use href="#m74" x="2400"/><use href="#m6f" x="3000"/><use href="#m73" x="3600"/><use href="#m64" x="4800"/><use href="#m65" x="5400"/><use href="#m73" x="6600"/><use href="#m65" x="7200"/><use href="#m67" x="7800"/><use href="#m75" x="8400"/><use href="#m72" x="9000"/><use href="#m69" x="9600"/><use href="#m64" x="10200"/><use href="#m61" x="10800"/><use href="#m64" x="11400"/></g></svg>
