<svg xmlns="http://www.w3.org/2000/svg" viewBox="0 0 168 172" width="168" height="172" role="img" aria-labelledby="t d"><title id="t">TCP/IP</title><desc id="d"></desc><style>.ng{animation:ng 3.8s ease-in-out infinite}@keyframes ng{0%,100%{opacity:.6}50%{opacity:1}}.zr{animation:zr 9s linear infinite}@keyframes zr{to{stroke-dashoffset:-1000}}.zf{animation-name:zf;animation-iteration-count:infinite;animation-timing-function:ease-in-out;animation-direction:alternate}@keyframes zf{from{transform:translateY(0)}to{transform:translateY(-4px)}}@media (prefers-reduced-motion:reduce){*{animation:none!important}}</style><defs><path id="t2f" d="M-16 -200 278 700H404L110 -200Z"/><path id="t43" d="M332 -14Q202 -14 126 58.5Q50 131 50 266V434Q50 569 126 641.5Q202 714 332 714Q461 714 532 643.5Q602 573 602 450V444H472V454Q472 516 438 556.0Q403 596 332 596Q262 596 222 553.0Q182 510 182 436V264Q182 191 222 147.5Q262 104 332 104Q403 104 438 144.5Q472 185 472 246V264H602V250Q602 127 532 56.5Q461 -14 332 -14Z"/><path id="t49" d="M66 0V700H198V0Z"/><path id="t50" d="M66 0V700H354Q420 700 470 673.5Q521 647 550 599.0Q578 551 578 485V471Q578 406 548 357.5Q519 309 468 282.5Q418 256 354 256H198V0ZM198 376H341Q388 376 417 402.0Q446 428 446 473V483Q446 528 417 554.0Q388 580 341 580H198Z"/><path id="t54" d="M228 0V580H24V700H564V580H360V0Z"/><clipPath id="zc"><rect width="168" height="172" rx="18"/></clipPath><radialGradient id="zg"><stop offset="0" stop-color="#FF7A66" stop-opacity="0.45"/><stop offset="1" stop-color="#FF7A66" stop-opacity="0"/></radialGradient><linearGradient id="zf" x1="0" y1="0" x2="0" y2="1"><stop offset="0" stop-color="#2F1D2A"/><stop offset="1" stop-color="#070B1E"/></linearGradient><filter id="nb" x="-8%" y="-80%" width="116%" height="260%" color-interpolation-filters="sRGB"><feGaussianBlur in="SourceGraphic" stdDeviation="1.6" result="a"/><feGaussianBlur in="SourceGraphic" stdDeviation="5" result="b"/><feMerge><feMergeNode in="b"/><feMergeNode in="b"/><feMergeNode in="a"/></feMerge></filter></defs><g clip-path="url(#zc)"><rect width="168" height="172" fill="url(#zf)"/><circle cx="84.0" cy="56" r="74" fill="url(#zg)"/></g><rect x="1.5" y="1.5" width="165" height="169" rx="16.5" fill="none" stroke="#FF7A66" stroke-opacity=".7" stroke-width="1.6"/><rect class="zr" x="1.5" y="1.5" width="165" height="169" rx="16.5" fill="none" stroke="#FFA294" stroke-width="2.4" stroke-linecap="round" pathLength="1000" stroke-dasharray="90 910" style="animation-delay:-5.48s"/><g class="zf" style="animation-duration:5.4s;animation-delay:-3.32s"><g transform="translate(49 20)"><rect width="70" height="70" rx="16.41" fill="#242938"/><g transform="translate(15.86 15.86) scale(1.5951)" fill="none" stroke="#FF8E7D" stroke-width="1.25" stroke-linecap="round" stroke-linejoin="round"><rect x="4" y="3" width="16" height="4.5" rx="1"/><rect x="4" y="9.75" width="16" height="4.5" rx="1"/><rect x="4" y="16.5" width="16" height="4.5" rx="1"/><path d="M7.5 5.25h.01M7.5 12h.01M7.5 18.75h.01"/></g></g></g><g filter="url(#nb)" class="ng" style="animation-delay:-2.44s"><g transform="translate(59.26 118) scale(0.016 -0.016)" fill="#FF7A66"><use href="#t54"/><use href="#t43" x="588"/><use href="#t50" x="1232"/><use href="#t2f" x="1836"/><use href="#t49" x="2224"/><use href="#t50" x="2488"/></g></g><g transform="translate(59.26 118) scale(0.016 -0.016)" fill="#FFC3BA"><use href="#t54"/><use href="#t43" x="588"/><use href="#t50" x="1232"/><use href="#t2f" x="1836"/><use href="#t49" x="2224"/><use href="#t50" x="2488"/></g></svg>
