<svg xmlns="http://www.w3.org/2000/svg" viewBox="0 0 168 172" width="168" height="172" role="img" aria-labelledby="t d"><title id="t">Microsoft Office</title><desc id="d"></desc><style>.ng{animation:ng 3.8s ease-in-out infinite}@keyframes ng{0%,100%{opacity:.6}50%{opacity:1}}.zr{animation:zr 9s linear infinite}@keyframes zr{to{stroke-dashoffset:-1000}}.zf{animation-name:zf;animation-iteration-count:infinite;animation-timing-function:ease-in-out;animation-direction:alternate}@keyframes zf{from{transform:translateY(0)}to{transform:translateY(-4px)}}@media (prefers-reduced-motion:reduce){*{animation:none!important}}</style><defs><path id="t4d" d="M66 0V700H311L432 90H450L571 700H816V0H688V603H670L550 0H332L212 603H194V0Z"/><path id="t4f" d="M338 -14Q206 -14 128 58.5Q50 131 50 266V434Q50 569 128 641.5Q206 714 338 714Q470 714 548 641.5Q626 569 626 434V266Q626 131 548 58.5Q470 -14 338 -14ZM338 104Q412 104 453 147.0Q494 190 494 262V438Q494 510 453 553.0Q412 596 338 596Q265 596 224 553.0Q182 510 182 438V262Q182 190 224 147.0Q265 104 338 104Z"/><path id="t63" d="M303 -14Q231 -14 172 16.0Q114 46 80 103.0Q46 160 46 241V255Q46 336 80 393.0Q114 450 172 480.0Q231 510 303 510Q374 510 425 485.0Q476 460 508 416.5Q539 373 549 318L427 292Q423 322 409 346.0Q395 370 370 384.0Q344 398 306 398Q268 398 238 381.5Q207 365 190 332.5Q172 300 172 253V243Q172 196 190 163.5Q207 131 238 114.5Q268 98 306 98Q363 98 392 127.5Q422 157 430 205L552 176Q539 123 508 79.5Q476 36 425 11.0Q374 -14 303 -14Z"/><path id="t65" d="M296 -14Q222 -14 166 17.5Q109 49 78 106.5Q46 164 46 242V254Q46 332 77 389.5Q108 447 164 478.5Q220 510 294 510Q367 510 421 477.5Q475 445 505 387.5Q535 330 535 254V211H174Q176 160 212 128.0Q248 96 300 96Q353 96 378 119.0Q403 142 416 170L519 116Q505 90 478 59.5Q452 29 408 7.5Q364 -14 296 -14ZM175 305H407Q403 348 372 374.0Q342 400 293 400Q242 400 212 374.0Q182 348 175 305Z"/><path id="t66" d="M152 0V392H26V496H152V588Q152 639 182 669.5Q213 700 262 700H392V596H306Q278 596 278 566V496H408V392H278V0Z"/><path id="t69" d="M70 0V496H196V0ZM133 554Q99 554 76 576.0Q52 598 52 634Q52 670 76 692.0Q99 714 133 714Q168 714 191 692.0Q214 670 214 634Q214 598 191 576.0Q168 554 133 554Z"/><path id="t6f" d="M306 -14Q232 -14 173 16.0Q114 46 80 103.0Q46 160 46 240V256Q46 336 80 393.0Q114 450 173 480.0Q232 510 306 510Q380 510 439 480.0Q498 450 532 393.0Q566 336 566 256V240Q566 160 532 103.0Q498 46 439 16.0Q380 -14 306 -14ZM306 98Q364 98 402 135.5Q440 173 440 243V253Q440 323 402 360.5Q365 398 306 398Q248 398 210 360.5Q172 323 172 253V243Q172 173 210 135.5Q248 98 306 98Z"/><path id="t72" d="M70 0V496H194V440H212Q223 470 248 484.0Q274 498 308 498H368V386H306Q258 386 227 360.5Q196 335 196 282V0Z"/><path id="t73" d="M276 -14Q179 -14 117 28.0Q55 70 42 148L158 178Q165 143 182 123.0Q198 103 222 94.5Q247 86 276 86Q320 86 341 101.5Q362 117 362 140Q362 163 342 175.5Q322 188 278 196L250 201Q198 211 155 228.5Q112 246 86 277.0Q60 308 60 357Q60 431 114 470.5Q168 510 256 510Q339 510 394 473.0Q449 436 466 376L349 340Q341 378 316 394.0Q292 410 256 410Q220 410 201 397.5Q182 385 182 363Q182 339 202 327.5Q222 316 256 310L284 305Q340 295 386 278.5Q431 262 458 231.5Q484 201 484 149Q484 71 428 28.5Q371 -14 276 -14Z"/><path id="t74" d="M260 0Q211 0 180 30.5Q150 61 150 112V392H26V496H150V650H276V496H412V392H276V134Q276 104 304 104H400V0Z"/><clipPath id="zc"><rect width="168" height="172" rx="18"/></clipPath><radialGradient id="zg"><stop offset="0" stop-color="#F25022" stop-opacity="0.45"/><stop offset="1" stop-color="#F25022" stop-opacity="0"/></radialGradient><linearGradient id="zf" x1="0" y1="0" x2="0" y2="1"><stop offset="0" stop-color="#2D161F"/><stop offset="1" stop-color="#070B1E"/></linearGradient><filter id="nb" x="-8%" y="-80%" width="116%" height="260%" color-interpolation-filters="sRGB"><feGaussianBlur in="SourceGraphic" stdDeviation="1.6" result="a"/><feGaussianBlur in="SourceGraphic" stdDeviation="5" result="b"/><feMerge><feMergeNode in="b"/><feMergeNode in="b"/><feMergeNode in="a"/></feMerge></filter></defs><g clip-path="url(#zc)"><rect width="168" height="172" fill="url(#zf)"/><circle cx="84.0" cy="56" r="74" fill="url(#zg)"/></g><rect x="1.5" y="1.5" width="165" height="169" rx="16.5" fill="none" stroke="#F25022" stroke-opacity=".7" stroke-width="1.6"/><rect class="zr" x="1.5" y="1.5" width="165" height="169" rx="16.5" fill="none" stroke="#F68464" stroke-width="2.4" stroke-linecap="round" pathLength="1000" stroke-dasharray="90 910" style="animation-delay:-8.03s"/><g class="zf" style="animation-duration:5.4s;animation-delay:-4.97s"><g transform="translate(49 20)"><rect width="70" height="70" rx="16.41" fill="#242938"/><g transform="translate(15.86 15.86) scale(1.5951)" fill="none" stroke="#F46A43" stroke-width="1.25" stroke-linecap="round" stroke-linejoin="round"><path d="M6 2.5h8l5 5V21a1 1 0 0 1-1 1H6a1 1 0 0 1-1-1V3.5a1 1 0 0 1 1-1Z"/><path d="M14 2.5V8h5M8 13h8M8 17h8M8 9h3"/></g></g></g><g filter="url(#nb)" class="ng" style="animation-delay:-0.19s"><g transform="translate(19.99 118) scale(0.016 -0.016)" fill="#F25022"><use href="#t4d"/><use href="#t69" x="882"/><use href="#t63" x="1148"/><use href="#t72" x="1734"/><use href="#t6f" x="2130"/><use href="#t73" x="2742"/><use href="#t6f" x="3266"/><use href="#t66" x="3878"/><use href="#t74" x="4314"/><use href="#t4f" x="5024"/><use href="#t66" x="5700"/><use href="#t66" x="6136"/><use href="#t69" x="6572"/><use href="#t63" x="6838"/><use href="#t65" x="7424"/></g></g><g transform="translate(19.99 118) scale(0.016 -0.016)" fill="#F9B09C"><use href="#t4d"/><use href="#t69" x="882"/><use href="#t63" x="1148"/><use href="#t72" x="1734"/><use href="#t6f" x="2130"/><use href="#t73" x="2742"/><use href="#t6f" x="3266"/><use href="#t66" x="3878"/><use href="#t74" x="4314"/><use href="#t4f" x="5024"/><use href="#t66" x="5700"/><use href="#t66" x="6136"/><use href="#t69" x="6572"/><use href="#t63" x="6838"/><use href="#t65" x="7424"/></g></svg>
